<?xml version="1.0" encoding="UTF-8" standalone="no"?>
<svg width="64px" height="64px" viewBox="0 0 64 64" version="1.1" xmlns="http://www.w3.org/2000/svg" xmlns:xlink="http://www.w3.org/1999/xlink">
    <!-- Generator: Sketch 3.7.2 (28276) - http://www.bohemiancoding.com/sketch -->
    <title>spa-dish</title>
    <desc>Created with Sketch.</desc>
    <defs></defs>
    <g id="64px-Line" stroke="none" stroke-width="1" fill="none" fill-rule="evenodd">
        <g id="spa-dish"></g>
        <path d="M24.273,14 L14.566,4.293 C14.337,4.064 14.011,3.958 13.69,4.015 C13.37,4.07 13.096,4.277 12.957,4.57 C7.425,16.156 9.808,30.039 18.886,39.115 C19.655,39.884 20.461,40.602 21.294,41.274 L14.076,58.617 C13.948,58.926 13.982,59.277 14.167,59.555 C14.352,59.833 14.666,60 15,60 L37.333,60 C37.667,60 37.979,59.833 38.165,59.555 C38.351,59.277 38.385,58.925 38.256,58.617 L33.507,47.206 C35.757,47.726 38.062,47.998 40.378,47.998 C44.805,47.998 49.267,47.032 53.431,45.044 C53.723,44.904 53.931,44.631 53.985,44.311 C54.04,43.992 53.936,43.665 53.707,43.435 L44,33.727 L44,15.415 L47.489,11.926 C47.653,11.969 47.822,12 48,12 C49.103,12 50,11.103 50,10 C50,8.897 49.103,8 48,8 C46.897,8 46,8.897 46,10 C46,10.178 46.031,10.347 46.075,10.511 L42.586,14 L24.273,14 L24.273,14 Z M40.586,16 L33.43,23.156 L26.273,16 L40.586,16 L40.586,16 Z M35.833,58 L16.5,58 L22.947,42.508 C25.459,44.265 28.197,45.611 31.061,46.53 L35.833,58 L35.833,58 Z M20.3,37.7 C12.158,29.559 9.782,17.279 14.179,6.734 L51.266,43.82 C40.72,48.218 28.441,45.841 20.3,37.7 L20.3,37.7 Z M34.844,24.57 L42,17.414 L42,31.726 L34.844,24.57 L34.844,24.57 Z" id="Shape" fill="#000000"></path>
    </g>
</svg>