<?xml version="1.0" encoding="UTF-8" standalone="no"?>
<svg width="64px" height="64px" viewBox="0 0 64 64" version="1.1" xmlns="http://www.w3.org/2000/svg" xmlns:xlink="http://www.w3.org/1999/xlink">
    <!-- Generator: Sketch 3.7.2 (28276) - http://www.bohemiancoding.com/sketch -->
    <title>spa-satellite</title>
    <desc>Created with Sketch.</desc>
    <defs></defs>
    <g id="64px-Line" stroke="none" stroke-width="1" fill="none" fill-rule="evenodd">
        <g id="spa-satellite"></g>
        <path d="M21,34 C18.597,34 16.336,34.937 14.636,36.637 C14.448,36.825 14.343,37.079 14.343,37.344 C14.343,37.609 14.448,37.864 14.636,38.051 L19.586,43 L18.293,44.293 C17.902,44.684 17.902,45.316 18.293,45.707 C18.488,45.902 18.744,46 19,46 C19.256,46 19.512,45.902 19.707,45.707 L21,44.414 L25.95,49.363 C26.145,49.558 26.401,49.656 26.657,49.656 C26.913,49.656 27.169,49.558 27.364,49.363 C29.064,47.664 30,45.404 30,43 C30,40.596 29.064,38.336 27.364,36.637 C25.665,34.937 23.404,34 21,34 L21,34 Z M26.607,47.192 L16.806,37.393 C18.011,36.489 19.468,36 21,36 C22.87,36 24.628,36.729 25.95,38.051 C27.272,39.373 28,41.13 28,43 C28,44.532 27.512,45.989 26.607,47.192 L26.607,47.192 Z" id="Shape" fill="#6f6ffc"></path>
        <path d="M49.707,28.293 C49.316,27.902 48.684,27.902 48.293,28.293 L44,32.586 L42.656,31.242 L47.949,25.949 C49.271,24.627 50,22.87 50,21 C50,19.13 49.271,17.373 47.949,16.051 C46.628,14.729 44.87,14 43,14 C41.13,14 39.372,14.729 38.051,16.051 L32.795,21.307 L31.451,19.963 L35.707,15.707 C36.098,15.316 36.098,14.684 35.707,14.293 L25.707,4.293 C25.316,3.902 24.684,3.902 24.293,4.293 L14.293,14.293 C13.902,14.684 13.902,15.316 14.293,15.707 L24.293,25.707 C24.488,25.902 24.744,26 25,26 C25.256,26 25.512,25.902 25.707,25.707 L30.037,21.377 L31.381,22.721 L28.051,26.051 C26.729,27.373 26,29.13 26,31 C26,32.87 26.729,34.627 28.051,35.949 C29.372,37.271 31.13,38 33,38 C34.87,38 36.628,37.271 37.949,35.949 L41.242,32.656 L42.586,34 L38.293,38.293 C37.902,38.684 37.902,39.316 38.293,39.707 L48.293,49.707 C48.488,49.902 48.744,50 49,50 C49.256,50 49.512,49.902 49.707,49.707 L59.707,39.707 C60.098,39.316 60.098,38.684 59.707,38.293 L49.707,28.293 L49.707,28.293 Z M25,23.586 L16.414,15 L25,6.414 L33.586,15 L25,23.586 L25,23.586 Z M36.535,34.535 C35.591,35.48 34.335,36 33,36 C31.665,36 30.409,35.48 29.465,34.535 C28.521,33.591 28,32.335 28,31 C28,29.665 28.521,28.409 29.465,27.465 L39.465,17.465 C40.409,16.52 41.665,16 43,16 C44.335,16 45.591,16.52 46.535,17.465 C47.479,18.409 48,19.665 48,21 C48,22.335 47.479,23.591 46.535,24.535 L36.535,34.535 L36.535,34.535 Z M49,47.586 L40.414,39 L49,30.414 L57.586,39 L49,47.586 L49,47.586 Z" id="Shape" fill="#6f6ffc"></path>
        <path d="M19,52 C19.553,52 20,51.552 20,51 C20,50.448 19.553,50 19,50 C16.243,50 14,47.757 14,45 C14,44.448 13.553,44 13,44 C12.447,44 12,44.448 12,45 C12,48.86 15.141,52 19,52 L19,52 Z" id="Shape" fill="#6f6ffc"></path>
        <path d="M19,56 C19.553,56 20,55.552 20,55 C20,54.448 19.553,54 19,54 C14.037,54 10,49.962 10,45 C10,44.448 9.553,44 9,44 C8.447,44 8,44.448 8,45 C8,51.065 12.935,56 19,56 L19,56 Z" id="Shape" fill="#6f6ffc"></path>
        <path d="M19,60 C19.553,60 20,59.552 20,59 C20,58.448 19.553,58 19,58 C11.832,58 6,52.168 6,45 C6,44.448 5.553,44 5,44 C4.447,44 4,44.448 4,45 C4,53.271 10.729,60 19,60 L19,60 Z" id="Shape" fill="#6f6ffc"></path>
    </g>
</svg>