<?xml version="1.0" encoding="UTF-8" standalone="no"?>
<svg width="64px" height="64px" viewBox="0 0 64 64" version="1.1" xmlns="http://www.w3.org/2000/svg" xmlns:xlink="http://www.w3.org/1999/xlink">
    <!-- Generator: Sketch 3.7.2 (28276) - http://www.bohemiancoding.com/sketch -->
    <title>spa-capsule-entry</title>
    <desc>Created with Sketch.</desc>
    <defs></defs>
    <g id="64px-Line" stroke="none" stroke-width="1" fill="none" fill-rule="evenodd">
        <g id="spa-capsule-entry"></g>
        <path d="M22.984,56.004 C24.241,56.004 25.226,55.57 25.92,54.878 C26.378,54.419 26.661,53.809 26.764,53.064 L29.895,38.78 C29.968,38.461 30.001,38.158 29.996,37.933 C30.005,37.838 30,37.745 29.983,37.655 C29.926,36.706 29.531,35.819 28.859,35.138 C28.165,34.444 27.236,34.044 26.239,34.009 C26.208,34.006 26.178,34.004 26.148,34.003 C25.838,34.006 25.53,34.032 25.222,34.104 L10.987,37.229 C10.216,37.326 9.588,37.613 9.124,38.08 C7.161,40.042 7.27,44.348 13.459,50.545 C17.465,54.545 20.681,56.004 22.984,56.004 L22.984,56.004 Z M10.041,41.522 L22.475,53.959 C20.688,53.729 18.056,52.309 14.873,49.129 C11.692,45.944 10.27,43.31 10.041,41.522 L10.041,41.522 Z M11.324,39.197 L25.663,36.053 C25.807,36.019 25.942,36.002 26.074,36.001 C26.097,36.003 26.12,36.004 26.143,36.005 C26.642,36.017 27.104,36.21 27.44,36.547 C27.784,36.895 27.979,37.359 27.989,37.853 C27.99,37.887 27.992,37.921 27.997,37.954 C27.993,38.075 27.976,38.201 27.943,38.343 L24.801,52.677 C24.795,52.707 24.788,52.738 24.785,52.768 C24.758,52.98 24.698,53.142 24.623,53.279 L10.715,39.369 C10.857,39.291 11.048,39.234 11.324,39.197 L11.324,39.197 Z" id="Shape" fill="#000000"></path>
        <path d="M21.5,45.994 C22.396,45.994 23.293,45.654 23.975,44.974 L23.978,44.971 C25.336,43.606 25.336,41.386 23.975,40.018 C22.613,38.661 20.393,38.66 19.022,40.02 C17.663,41.384 17.663,43.605 19.025,44.974 C19.707,45.654 20.604,45.994 21.5,45.994 L21.5,45.994 Z M20.435,41.437 C20.73,41.145 21.117,40.998 21.503,40.998 C21.887,40.998 22.271,41.143 22.561,41.433 C23.144,42.019 23.145,42.972 22.563,43.559 C21.976,44.142 21.022,44.142 20.439,43.561 C19.855,42.973 19.854,42.019 20.435,41.437 L20.435,41.437 Z" id="Shape" fill="#000000"></path>
        <path d="M20,60 C24.271,60 28.287,58.338 31.308,55.319 C34.101,52.602 43.443,38.157 43.84,37.543 C44.063,37.198 44.052,36.752 43.813,36.418 C43.574,36.085 43.155,35.932 42.757,36.03 L37.369,37.377 L59.816,5.577 C60.1,5.175 60.049,4.626 59.696,4.283 C59.343,3.941 58.793,3.905 58.399,4.2 L29.252,26.06 L31.928,19.371 C32.087,18.972 31.974,18.517 31.648,18.238 C31.32,17.959 30.852,17.92 30.485,18.142 C29.703,18.61 11.317,29.655 8.686,32.686 C5.665,35.708 4,39.727 4,44 C4,48.273 5.665,52.292 8.687,55.313 C11.708,58.336 15.727,60 20,60 L20,60 Z M10.148,34.049 C11.923,32.007 22.691,25.231 28.961,21.403 L26.071,28.628 C25.904,29.045 26.035,29.521 26.391,29.794 C26.747,30.066 27.241,30.07 27.599,29.8 L54.523,9.607 L34.182,38.423 C33.941,38.764 33.938,39.22 34.174,39.565 C34.411,39.911 34.838,40.072 35.242,39.97 L40.769,38.588 C38.007,42.796 31.924,51.933 29.909,53.888 C29.905,53.891 29.902,53.895 29.898,53.899 C27.255,56.544 23.74,58 20,58 C16.261,58 12.745,56.544 10.101,53.899 C7.457,51.255 6,47.74 6,44 C6,40.261 7.457,36.745 10.148,34.049 L10.148,34.049 Z" id="Shape" fill="#000000"></path>
    </g>
</svg>