<?xml version="1.0" encoding="UTF-8" standalone="no"?>
<svg width="64px" height="64px" viewBox="0 0 64 64" version="1.1" xmlns="http://www.w3.org/2000/svg" xmlns:xlink="http://www.w3.org/1999/xlink">
    <!-- Generator: Sketch 3.7.2 (28276) - http://www.bohemiancoding.com/sketch -->
    <title>spa-capsule-landing</title>
    <desc>Created with Sketch.</desc>
    <defs></defs>
    <g id="64px-Line" stroke="none" stroke-width="1" fill="none" fill-rule="evenodd">
        <g id="spa-capsule-landing"></g>
        <path d="M10.864,27.896 C10.882,27.904 10.902,27.901 10.92,27.908 C10.94,27.916 10.954,27.932 10.975,27.939 L27.764,33.333 C27.758,33.339 27.751,33.345 27.745,33.351 C27.511,33.584 27.288,33.864 27.077,34.19 L17.172,49.85 C16.339,51.171 16,52.083 16,53 C16,57.187 22.028,60 31,60 C39.972,60 46,57.187 46,53 C46,52.081 45.661,51.167 44.829,49.848 L34.925,34.19 C34.923,34.186 34.92,34.183 34.918,34.179 C34.705,33.852 34.477,33.568 34.309,33.408 C34.288,33.38 34.258,33.36 34.234,33.334 L51.027,27.938 C51.048,27.931 51.062,27.915 51.082,27.907 C51.1,27.9 51.12,27.903 51.138,27.895 C52.382,27.325 53.5,26.574 54.464,25.661 C56.745,23.484 58.001,20.589 58.002,17.509 C58.003,14.551 56.835,11.771 54.723,9.623 C54.702,9.597 54.681,9.573 54.657,9.549 C54.638,9.529 54.62,9.51 54.599,9.492 C54.552,9.445 54.51,9.394 54.462,9.348 C49.781,4.897 42.163,4.897 37.475,9.351 C36.509,10.28 35.72,11.353 35.129,12.541 C35.101,12.596 35.092,12.656 35.075,12.714 C35.067,12.741 35.049,12.761 35.044,12.789 L31.171,32.058 C31.057,32.054 30.945,32.049 30.831,32.053 L26.959,12.789 C26.954,12.762 26.936,12.742 26.928,12.716 C26.911,12.658 26.902,12.598 26.874,12.542 C26.284,11.354 25.495,10.28 24.524,9.348 C19.841,4.898 12.222,4.897 7.539,9.35 C7.488,9.399 7.444,9.453 7.394,9.503 C7.381,9.515 7.371,9.528 7.358,9.54 C7.331,9.567 7.305,9.592 7.281,9.622 C5.169,11.769 4.001,14.551 4.002,17.51 C4.003,20.591 5.259,23.486 7.543,25.664 C8.502,26.575 9.62,27.326 10.864,27.896 L10.864,27.896 Z M31,58 C23.616,58 19.285,56.117 18.249,54 L43.75,54 C42.715,56.117 38.384,58 31,58 L31,58 Z M53.083,24.212 C52.438,24.823 51.707,25.349 50.902,25.78 L48.031,23.045 C49.98,21.782 53.579,18.687 54.653,12.76 C55.525,14.191 56,15.815 55.999,17.509 C56,20.037 54.963,22.418 53.083,24.212 L53.083,24.212 Z M41.995,17.294 C42.981,15.789 46.105,12.029 52.846,11.343 C52.098,17.799 48.055,20.738 46.536,21.62 L41.995,17.294 L41.995,17.294 Z M38.855,10.797 C42.26,7.56 47.515,7.137 51.406,9.517 C45.086,10.536 41.827,14.055 40.531,15.9 L37.268,12.791 C37.704,12.061 38.236,11.392 38.855,10.797 L38.855,10.797 Z M36.647,14.961 L48.811,26.549 L33.316,31.528 L36.647,14.961 L36.647,14.961 Z M32.815,34.741 C32.822,34.747 32.828,34.753 32.835,34.759 C32.968,34.89 33.104,35.061 33.237,35.265 L43.137,50.916 C43.417,51.361 43.607,51.713 43.736,51.999 L18.262,51.999 C18.391,51.714 18.581,51.362 18.862,50.916 L28.76,35.267 C28.891,35.064 29.028,34.892 29.164,34.758 C29.165,34.757 29.167,34.755 29.168,34.754 C29.173,34.75 29.178,34.745 29.183,34.74 C30.191,33.786 31.811,33.786 32.815,34.741 L32.815,34.741 Z M13.189,26.549 L25.353,14.961 L28.684,31.528 L13.189,26.549 L13.189,26.549 Z M15.464,21.62 C13.945,20.738 9.902,17.799 9.154,11.343 C15.894,12.029 19.018,15.79 20.005,17.294 L15.464,21.62 L15.464,21.62 Z M16.031,8 C18.606,8 21.181,8.931 23.14,10.793 C23.762,11.391 24.295,12.061 24.731,12.791 L21.468,15.899 C20.171,14.055 16.913,10.536 10.593,9.517 C12.244,8.509 14.137,8 16.031,8 L16.031,8 Z M7.346,12.759 C8.42,18.686 12.02,21.781 13.968,23.044 L11.097,25.779 C10.292,25.348 9.561,24.822 8.919,24.213 C7.037,22.418 6.001,20.036 6,17.507 C6,15.814 6.474,14.19 7.346,12.759 L7.346,12.759 Z" id="Shape" fill="#000000"></path>
        <path d="M26,45.003 C26,47.758 28.243,50 31,50 C33.757,50 36,47.758 36,45.003 C36,42.244 33.757,40 31,40 C28.243,40 26,42.244 26,45.003 L26,45.003 Z M31,42 C32.654,42 34,43.347 34,45.003 C34,46.656 32.654,48 31,48 C29.346,48 28,46.656 28,45.003 C28,43.347 29.346,42 31,42 L31,42 Z" id="Shape" fill="#000000"></path>
    </g>
</svg>