<?xml version="1.0" encoding="UTF-8" standalone="no"?>
<svg width="64px" height="64px" viewBox="0 0 64 64" version="1.1" xmlns="http://www.w3.org/2000/svg" xmlns:xlink="http://www.w3.org/1999/xlink">
    <!-- Generator: Sketch 3.7.2 (28276) - http://www.bohemiancoding.com/sketch -->
    <title>spa-rocket</title>
    <desc>Created with Sketch.</desc>
    <defs></defs>
    <g id="64px-Line" stroke="none" stroke-width="1" fill="none" fill-rule="evenodd">
        <g id="spa-rocket"></g>
        <path d="M33.623,15.515 C31.207,17.931 28.908,20.96 26.88,24 L17,24 C16.766,24 16.54,24.082 16.36,24.231 L4.36,34.231 C4.037,34.501 3.917,34.944 4.06,35.34 C4.204,35.736 4.58,35.999 5,35.999 L19.973,35.999 C19.457,37.034 19.147,37.696 19.092,37.814 C18.916,38.195 18.995,38.645 19.292,38.942 L21.467,41.117 L16.292,46.292 C15.901,46.683 15.901,47.315 16.292,47.706 C16.487,47.901 16.743,47.999 16.999,47.999 C17.255,47.999 17.511,47.901 17.706,47.706 L22.881,42.531 L25.056,44.706 C25.248,44.897 25.503,44.999 25.764,44.999 C25.906,44.999 26.05,44.969 26.184,44.906 C26.302,44.851 26.965,44.541 27.999,44.025 L27.999,59 C27.999,59.421 28.263,59.797 28.659,59.94 C28.77,59.98 28.885,60 28.999,60 C29.29,60 29.574,59.873 29.767,59.641 L39.767,47.641 C39.917,47.461 39.999,47.235 39.999,47 L39.999,37.12 C43.039,35.092 46.069,32.792 48.484,30.376 C56.297,22.564 59.729,9.467 57.13,6.868 C54.531,4.271 41.436,7.701 33.623,15.515 L33.623,15.515 Z M7.762,34 L17.362,26 L25.585,26 C23.708,28.979 22.128,31.838 20.996,34 L7.762,34 L7.762,34 Z M38,46.638 L30,56.239 L30,43.005 C32.162,41.874 35.021,40.294 38,38.417 L38,46.638 L38,46.638 Z M47.071,28.963 C44.723,31.311 41.716,33.569 38.693,35.569 C38.516,35.627 38.365,35.728 38.247,35.867 C32.969,39.314 27.738,41.935 25.97,42.793 L24.295,41.118 L33.706,31.707 C34.097,31.316 34.097,30.684 33.706,30.293 C33.315,29.902 32.683,29.902 32.292,30.293 L22.881,39.704 L21.206,38.029 C22.063,36.261 24.683,31.031 28.13,25.753 C28.27,25.634 28.372,25.483 28.43,25.304 C30.43,22.283 32.687,19.277 35.035,16.928 C42.933,9.031 54.573,7.14 55.715,8.282 C56.859,9.426 54.969,21.065 47.071,28.963 L47.071,28.963 Z" id="Shape" fill="#000000"></path>
        <path d="M45,14 C42.243,14 40,16.243 40,19 C40,21.757 42.243,24 45,24 C47.757,24 50,21.757 50,19 C50,16.243 47.757,14 45,14 L45,14 Z M45,22 C43.346,22 42,20.654 42,19 C42,17.346 43.346,16 45,16 C46.654,16 48,17.346 48,19 C48,20.654 46.654,22 45,22 L45,22 Z" id="Shape" fill="#000000"></path>
        <path d="M23,46 C22.448,46 22,46.447 22,47 C22,55.383 9.953,57.446 6.108,57.892 C6.55,54.045 8.605,42 17,42 C17.552,42 18,41.553 18,41 C18,40.447 17.552,40 17,40 C12.043,40 8.217,43.341 5.935,49.66 C4.279,54.245 4.013,58.755 4.002,58.944 C3.986,59.228 4.092,59.506 4.294,59.707 C4.482,59.895 4.736,60 5.001,60 C5.02,60 5.038,59.999 5.057,59.998 C5.246,59.988 9.756,59.722 14.341,58.065 C20.661,55.783 24.001,51.957 24.001,47 C24,46.447 23.552,46 23,46 L23,46 Z" id="Shape" fill="#000000"></path>
    </g>
</svg>