<?xml version="1.0" encoding="UTF-8" standalone="no"?>
<svg width="64px" height="64px" viewBox="0 0 64 64" version="1.1" xmlns="http://www.w3.org/2000/svg" xmlns:xlink="http://www.w3.org/1999/xlink">
    <!-- Generator: Sketch 3.7.2 (28276) - http://www.bohemiancoding.com/sketch -->
    <title>spa-death-star-2</title>
    <desc>Created with Sketch.</desc>
    <defs></defs>
    <g id="64px-Line" stroke="none" stroke-width="1" fill="none" fill-rule="evenodd">
        <g id="spa-death-star-2"></g>
        <path d="M22.926,25.993 C25.135,25.993 27.458,25.069 29.264,23.263 C30.852,21.674 31.816,19.642 31.977,17.54 C32.144,15.38 31.449,13.404 30.022,11.978 C27.121,9.076 22.058,9.417 18.738,12.737 C15.418,16.058 15.078,21.12 17.979,24.021 C19.303,25.345 21.075,25.993 22.926,25.993 L22.926,25.993 Z M23.932,18.93 L23.932,18.93 C24.473,18.389 25.153,18.061 25.848,18.007 C25.913,18.002 25.977,18 26.041,18 C26.599,18 27.095,18.191 27.453,18.55 C27.851,18.948 28.044,19.519 27.995,20.155 C27.942,20.849 27.614,21.529 27.073,22.07 C26.532,22.611 25.852,22.939 25.158,22.993 C24.523,23.044 23.952,22.849 23.553,22.45 C23.155,22.052 22.962,21.481 23.011,20.845 C23.063,20.15 23.391,19.471 23.932,18.93 L23.932,18.93 Z M20.153,14.151 C22.694,11.612 26.487,11.271 28.609,13.392 C29.616,14.399 30.105,15.818 29.984,17.386 C29.953,17.791 29.882,18.194 29.774,18.589 C29.584,18.043 29.28,17.549 28.866,17.135 C28.048,16.317 26.921,15.909 25.693,16.013 C24.523,16.103 23.396,16.636 22.517,17.515 L22.517,17.515 C21.639,18.393 21.105,19.521 21.016,20.691 C20.921,21.92 21.32,23.045 22.138,23.864 C22.173,23.899 22.215,23.923 22.251,23.956 C21.171,23.826 20.171,23.383 19.395,22.607 C17.273,20.485 17.613,16.692 20.153,14.151 L20.153,14.151 Z" id="Shape" fill="#6f6ffc"></path>
        <path d="M31,58 C37.293,58 43.42,55.787 48.253,51.769 C48.577,51.5 48.697,51.057 48.554,50.661 C48.411,50.265 48.035,50.001 47.614,50.001 L36,50.001 L36,48.001 L47,48.001 C47.552,48.001 48,47.554 48,47.001 L48,44.001 L51,44.001 C51.552,44.001 52,43.554 52,43.001 C52,42.448 51.552,42.001 51,42.001 L47,42.001 L40,42.001 L40,40.001 L43,40.001 L53,40.001 C53.552,40.001 54,39.554 54,39.001 C54,38.448 53.552,38.001 53,38.001 L44,38.001 L44,36.001 L56.693,36.001 C57.072,36.001 57.42,35.783 57.589,35.444 C57.635,35.351 57.667,35.252 57.683,35.149 C57.893,33.783 57.999,32.387 57.999,31.001 C57.999,29.611 57.892,28.214 57.682,26.849 C57.607,26.362 57.187,26.001 56.694,26.001 L42,26.001 L42,24.001 L45,24.001 L49,24.001 C49.552,24.001 50,23.554 50,23.001 C50,22.448 49.552,22.001 49,22.001 L46,22.001 L46,20.001 L51,20.001 C51.552,20.001 52,19.554 52,19.001 C52,18.448 51.552,18.001 51,18.001 L38,18.001 L38,16.001 L41,16.001 L43,16.001 C43.552,16.001 44,15.554 44,15.001 C44,14.448 43.552,14.001 43,14.001 L42,14.001 L42,12.001 L47.613,12 C48.034,12 48.41,11.736 48.553,11.34 C48.696,10.944 48.576,10.5 48.252,10.232 C43.421,6.213 37.294,4 31,4 C16.112,4 4,16.112 4,31 C4,45.888 16.112,58 31,58 L31,58 Z M43,34 L39,34 C38.448,34 38,34.447 38,35 C38,35.553 38.448,36 39,36 L42,36 L42,38 L39,38 C38.448,38 38,38.447 38,39 L38,42 L35,42 C34.448,42 34,42.447 34,43 C34,43.553 34.448,44 35,44 L39,44 L46,44 L46,46 L35,46 L29,46 C28.448,46 28,46.447 28,47 C28,47.553 28.448,48 29,48 L34,48 L34,50 L33,50 C32.448,50 32,50.447 32,51 C32,51.553 32.448,52 33,52 L35,52 L44.565,52 C40.544,54.596 35.825,56 31,56 C17.55,56 6.553,45.323 6.025,32 L55.97,32 C55.944,32.669 55.901,33.337 55.821,34 L43,34 L43,34 Z M31,6 C35.826,6 40.546,7.404 44.565,10 L41,10 L37,10 C36.448,10 36,10.447 36,11 C36,11.553 36.448,12 37,12 L40,12 L40,14 L37,14 C36.448,14 36,14.447 36,15 L36,18 L35,18 C34.448,18 34,18.447 34,19 C34,19.553 34.448,20 35,20 L37,20 L44,20 L44,22 L41,22 L35,22 C34.448,22 34,22.447 34,23 C34,23.553 34.448,24 35,24 L40,24 L40,26 L37,26 C36.448,26 36,26.447 36,27 C36,27.553 36.448,28 37,28 L41,28 L55.822,28 C55.901,28.663 55.944,29.331 55.97,30 L6.025,30 C6.553,16.677 17.55,6 31,6 L31,6 Z" id="Shape" fill="#6f6ffc"></path>
    </g>
</svg>